<?xml version="1.0" encoding="UTF-8" standalone="no"?>
<!DOCTYPE svg PUBLIC "-//W3C//DTD SVG 1.1//EN" "http://www.w3.org/Graphics/SVG/1.1/DTD/svg11.dtd">
<svg width="100%" height="100%" viewBox="0 0 512 512" version="1.1" xmlns="http://www.w3.org/2000/svg" xmlns:xlink="http://www.w3.org/1999/xlink" xml:space="preserve" xmlns:serif="http://www.serif.com/" style="fill-rule:evenodd;clip-rule:evenodd;stroke-linejoin:round;stroke-miterlimit:2;">
    <g transform="matrix(1,0,0,1,-9384.16,-14.9044)">
        <g id="favicon512" transform="matrix(0.256,0,0,0.256,9384.16,14.9044)">
            <rect x="0" y="0" width="2000" height="2000" style="fill:none;"/>
            <clipPath id="_clip1">
                <rect x="0" y="0" width="2000" height="2000"/>
            </clipPath>
            <g clip-path="url(#_clip1)">
                <g transform="matrix(1,0,0,1,-7193.21,-2.4869e-12)">
                    <path d="M8840.3,0C8933.9,-0 9023.66,37.181 9089.84,103.365C9156.03,169.548 9193.21,259.312 9193.21,352.91L9193.21,1647.09C9193.21,1740.69 9156.03,1830.45 9089.84,1896.63C9023.66,1962.82 8933.9,2000 8840.3,2000L7546.12,2000C7452.52,2000 7362.76,1962.82 7296.57,1896.63C7230.39,1830.45 7193.21,1740.69 7193.21,1647.09C7193.21,1282.68 7193.21,717.324 7193.21,352.91C7193.21,259.312 7230.39,169.548 7296.57,103.365C7362.76,37.181 7452.52,-0 7546.12,-0C7910.53,0 8475.88,0 8840.3,0Z" style="fill:white;"/>
                </g>
                <g id="Livello-1" serif:id="Livello 1">
                </g>
                <g transform="matrix(1,0,0,1,1960.42,602.388)">
                    <path d="M-1644.67,1044.91L-1644.67,215.652L-1671.03,215.652C-1816.29,215.652 -1865.34,21.662 -1737.52,-47.379L-1026.93,-431.248C-985.425,-453.671 -935.413,-453.671 -893.915,-431.249L-640.321,-294.257L-640.321,-339.818C-640.321,-399.604 -591.848,-448.068 -532.081,-448.068L-392.081,-448.068C-332.312,-448.068 -283.84,-399.604 -283.84,-339.818L-283.84,-101.678L-183.318,-47.38C-55.503,21.662 -104.553,215.652 -249.81,215.652C-249.81,215.652 -276.17,215.652 -276.17,215.652L-276.17,1044.91C-276.17,1154.48 -364.985,1243.29 -474.55,1243.29L-1446.29,1243.29C-1456.94,1243.29 -1467.39,1242.45 -1477.59,1240.83C-1485.01,1239.66 -1492.29,1238.07 -1499.41,1236.08C-1509.69,1233.23 -1519.63,1229.58 -1529.17,1225.19C-1553.15,1214.15 -1574.55,1198.46 -1592.21,1179.29C-1593.04,1178.39 -1593.86,1177.49 -1594.67,1176.57C-1605.86,1163.97 -1615.47,1149.93 -1623.18,1134.77C-1625.81,1129.6 -1628.22,1124.31 -1630.39,1118.9C-1633.33,1111.61 -1635.85,1104.09 -1637.91,1096.39L-1637.92,1096.38C-1642.31,1079.98 -1644.67,1062.72 -1644.67,1044.91ZM-614.629,1143.29L-474.55,1143.29C-420.215,1143.29 -376.17,1099.25 -376.17,1044.91L-376.17,115.652L-249.81,115.652C-208.366,115.652 -194.377,60.303 -230.844,40.604L-383.84,-42.038L-383.84,-339.818C-383.84,-344.372 -387.528,-348.068 -392.081,-348.068L-532.081,-348.068C-536.633,-348.068 -540.321,-344.372 -540.321,-339.818L-540.321,-126.579L-941.448,-343.268C-953.287,-349.665 -967.554,-349.664 -979.395,-343.267L-1690,40.604C-1726.46,60.303 -1712.47,115.652 -1671.03,115.652L-1544.67,115.652L-1544.67,214.089L-1430.44,306.393C-1423.79,303.126 -1417.08,299.997 -1410.31,297.007C-1395.84,290.603 -1381.09,284.831 -1366.11,279.705L-1350.31,130.892C-1347.5,103.823 -1324.65,83.273 -1297.43,83.323C-1297.39,83.323 -1297.36,83.323 -1297.32,83.323L-1083.9,83.323C-1083.85,83.323 -1083.8,83.323 -1083.75,83.323C-1056.64,83.274 -1033.86,103.664 -1030.91,130.614L-1015.1,279.484C-993.043,287.02 -971.492,295.956 -950.58,306.25L-834.329,212.323C-833.414,211.586 -832.481,210.884 -831.533,210.218C-823.627,204.59 -814.594,201.397 -805.414,200.604L-805.414,200.764C-790.375,199.528 -774.984,204.707 -763.589,216.073L-612.589,367.063C-593.469,386.233 -591.859,416.723 -608.839,437.802L-702.959,554.283C-692.678,575.161 -683.753,596.68 -676.222,618.704L-527.447,634.503C-500.378,637.313 -479.828,660.162 -479.878,687.382L-479.878,687.383L-479.878,900.952C-479.829,928.063 -500.219,950.843 -527.169,953.792L-676.039,969.603C-683.579,991.673 -692.519,1013.23 -702.819,1034.15L-614.629,1143.29ZM-1544.67,350.708L-1544.67,1044.91C-1544.67,1053.76 -1543.51,1062.34 -1541.33,1070.5C-1540.31,1074.28 -1539.07,1077.97 -1537.62,1081.57L-1537.62,1081.58C-1526.28,1109.78 -1502.3,1131.52 -1472.61,1139.74L-1472.56,1139.76C-1469.11,1140.72 -1465.58,1141.49 -1461.94,1142.06L-1461.89,1142.07C-1456.81,1142.88 -1451.6,1143.29 -1446.29,1143.29L-750.96,1143.29L-807.449,1073.7C-816.48,1062.56 -820.417,1048.54 -819.015,1034.86C-818.835,1032.99 -818.555,1031.13 -818.175,1029.28C-817.04,1023.69 -814.988,1018.22 -812.003,1013.1C-802.393,996.534 -793.893,979.364 -786.573,961.715L-786.573,961.828C-779.118,943.891 -772.866,925.456 -767.868,906.643C-762.217,885.403 -744.058,869.843 -722.197,867.523L-585.987,853.193L-585.987,735.227L-722.199,720.733C-737.065,719.162 -750.227,711.469 -758.907,700.028C-763.068,694.589 -766.212,688.295 -768.038,681.403C-778.018,644.093 -792.918,608.273 -812.357,574.903C-823.467,555.843 -821.618,531.903 -807.728,514.773L-721.387,408.203L-739.478,390.123L-739.288,390.123L-804.759,324.653L-805.415,325.183L-911.004,410.894C-919.447,417.74 -929.547,421.658 -939.9,422.543C-950.733,423.583 -961.872,421.294 -971.708,415.553C-988.278,405.943 -1005.45,397.443 -1023.1,390.123L-1022.73,390.123C-1040.75,382.622 -1059.27,376.334 -1078.17,371.313C-1099.41,365.662 -1114.97,347.503 -1117.29,325.642L-1131.62,189.432L-1249.48,189.432L-1263.97,325.644C-1265.95,344.382 -1277.66,360.412 -1294.34,368.172C-1297.22,369.533 -1300.25,370.646 -1303.41,371.483C-1340.72,381.463 -1376.54,396.363 -1409.91,415.802C-1428.97,426.912 -1452.91,425.063 -1470.04,411.173L-1544.67,350.708ZM-1190.59,470.983C-1012.14,471.004 -867.481,615.674 -867.481,794.134C-867.68,972.534 -1012.26,1117.1 -1190.67,1117.27C-1369.13,1117.26 -1513.8,972.563 -1513.78,794.094C-1513.76,615.634 -1369.06,470.964 -1190.59,470.983ZM-1190.59,1011.16C-1070.74,1011.14 -973.6,913.983 -973.6,794.134C-973.73,674.313 -1070.84,577.214 -1190.67,577.103C-1310.53,577.113 -1407.68,674.304 -1407.66,794.163C-1407.64,914.034 -1310.46,1011.18 -1190.59,1011.16Z" style="fill:rgb(10,10,11);"/>
                </g>
            </g>
        </g>
        <g id="layer1">
        </g>
    </g>
</svg>
