<?xml version="1.0" encoding="UTF-8" standalone="no"?>
<!DOCTYPE svg PUBLIC "-//W3C//DTD SVG 1.1//EN" "http://www.w3.org/Graphics/SVG/1.1/DTD/svg11.dtd">
<svg width="100%" height="100%" viewBox="0 0 1702 1692" version="1.1" xmlns="http://www.w3.org/2000/svg" xmlns:xlink="http://www.w3.org/1999/xlink" xml:space="preserve" xmlns:serif="http://www.serif.com/" style="fill-rule:evenodd;clip-rule:evenodd;stroke-linejoin:round;stroke-miterlimit:2;">
    <g transform="matrix(1,0,0,1,0,-1896)">
        <g id="layer1">
        </g>
        <g id="Tavola-da-disegno3" serif:id="Tavola da disegno3" transform="matrix(1,0,0,1,229.914,-0.777302)">
            <rect x="-229.914" y="1896.78" width="1701.5" height="1691.36" style="fill:none;"/>
            <clipPath id="_clip1">
                <rect x="-229.914" y="1896.78" width="1701.5" height="1691.36"/>
            </clipPath>
            <g clip-path="url(#_clip1)">
                <g transform="matrix(1,0,0,1,1331.53,2971.59)">
                    <path d="M0,-410.32C0,-410.32 -26.36,-410.32 -26.36,-410.32L-26.36,418.94C-26.36,528.505 -115.175,617.32 -224.74,617.32L-1196.48,617.32C-1207.13,617.32 -1217.58,616.478 -1227.78,614.855C-1235.19,613.685 -1242.48,612.098 -1249.6,610.112C-1309.33,593.55 -1357.73,549.767 -1380.59,492.926C-1383.52,485.636 -1386.04,478.118 -1388.11,470.418L-1388.11,470.409C-1392.5,454.005 -1394.86,436.747 -1394.86,418.94L-1394.86,-410.32L-1421.22,-410.32C-1566.48,-410.32 -1615.53,-604.311 -1487.71,-673.351L-777.118,-1057.22C-735.616,-1079.64 -685.603,-1079.64 -644.106,-1057.22L-390.511,-920.229L-390.511,-965.79C-390.511,-1025.58 -342.039,-1074.04 -282.271,-1074.04L-142.271,-1074.04C-82.502,-1074.04 -34.03,-1025.58 -34.03,-965.79L-34.03,-727.65L66.492,-673.352C194.307,-604.311 145.256,-410.32 0,-410.32ZM0,-510.32C41.444,-510.32 55.433,-565.669 18.966,-585.368L-134.03,-668.01L-134.03,-965.79C-134.03,-970.344 -137.718,-974.04 -142.271,-974.04L-282.271,-974.04C-286.823,-974.04 -290.511,-970.344 -290.511,-965.79L-290.511,-752.551L-691.638,-969.24C-703.477,-975.637 -717.744,-975.637 -729.585,-969.239L-1440.19,-585.368C-1476.65,-565.67 -1462.66,-510.32 -1421.22,-510.32L-1294.86,-510.32L-1294.86,418.94C-1294.86,427.79 -1293.7,436.369 -1291.52,444.522C-1290.5,448.303 -1289.26,451.997 -1287.82,455.594L-1287.81,455.609C-1276.47,483.804 -1252.49,505.547 -1222.8,513.768L-1222.75,513.782C-1219.3,514.746 -1215.77,515.513 -1212.13,516.087L-1212.09,516.094C-1207,516.905 -1201.79,517.32 -1196.48,517.32L-224.74,517.32C-170.405,517.32 -126.36,473.275 -126.36,418.94L-126.36,-510.32L0,-510.32Z"/>
                </g>
            </g>
        </g>
    </g>
</svg>
